<svg xmlns="http://www.w3.org/2000/svg" width="511.998" height="336.906" viewBox="0 0 511.998 336.906">
  <g id="clouds" transform="translate(-0.001 -117.411)">
    <g id="Group_1" data-name="Group 1">
      <path id="Path_4" data-name="Path 4" d="M461.677,289.571c2.394-19.692-9.068-58.921-9.068-58.921L444.3,215.677a110.334,110.334,0,0,0-85.34-49.467,112.162,112.162,0,0,0-41.7,5.479c-2.127.273-1.878-2.581-13.192-14.112-17.337-17.715-62.639-36.06-62.639-36.06l-16.672-3.1s-10.97-1.006-16.555-1.006A134.49,134.49,0,0,0,76.672,223.963,81.194,81.194,0,0,0,.013,306.468c.735,44.035,37.72,79.86,82.447,79.86h71.117c-2.221,37.667,28.543,67.989,64.917,67.989h93.513a7.5,7.5,0,1,0,0-15H218.494c-27.148,0-49.6-21.656-50.042-48.275-.487-29.171,24.31-50.814,49.668-49.946,4.668.14,7.571-2.853,8.127-6.281C239,256.222,339.516,232.495,386.864,295.16a14.644,14.644,0,0,0,16.294,5.176c44.758-14.934,91.769,17.617,93.784,64.508A71.259,71.259,0,0,1,425.7,439.313H347.009a7.5,7.5,0,0,0,0,15H425.7A85.585,85.585,0,0,0,488.034,427.7C528.919,385.019,515.775,314.537,461.677,289.571ZM447.132,284.4a86.147,86.147,0,0,0-48.394,1.6c-54.736-72.238-166.9-45.174-186.113,40.264a64.112,64.112,0,0,0-56.363,45.063h-73.8c-36.591,0-66.849-29.207-67.448-65.108A66.2,66.2,0,0,1,81.242,238.84c.268,0,.533.01.8.02l.706.021.167,0a7.5,7.5,0,0,0,7.4-6.3,119.455,119.455,0,0,1,213.252-52.652,16.837,16.837,0,0,0,18.7,5.958C386.867,164.341,452.949,216.8,447.132,284.4Z"/>
    </g>
  </g>
</svg>
