<svg xmlns="http://www.w3.org/2000/svg" width="512" height="512.002" viewBox="0 0 512 512.002">
  <g id="rain" transform="translate(0 0.001)">
    <path id="Path_19" data-name="Path 19" d="M426.477,110.67a210.935,210.935,0,0,0-64.916-75.91c-64.926-46.321-146.121-46.374-211.121,0a210.966,210.966,0,0,0-64.912,75.909C37.878,116.534,0,157.056,0,206.449c0,53.234,43.758,96.542,97.543,96.542H414.457c53.785,0,97.543-43.309,97.543-96.542,0-49.366-37.854-89.91-85.523-95.779Zm-12.02,162.322H97.543C60.3,272.992,30,243.141,30,206.449c0-35.7,29.486-65.523,65.729-66.492a15.042,15.042,0,0,0,13.3-8.881C136.15,70.617,195.214,30,256,30c53.4,0,105.471,31.354,135.711,79.932L328,109.908a15,15,0,0,0-.005,30c66.054.022,86.968.017,88.276.051,36.243.967,65.729,30.795,65.729,66.49C482,243.141,451.7,272.992,414.457,272.992Z"/>
    <path id="Path_20" data-name="Path 20" d="M133.571,338.069a15,15,0,0,0-19.5,8.356l-16,40a15,15,0,1,0,27.854,11.142l16-40A15,15,0,0,0,133.571,338.069Z"/>
    <path id="Path_21" data-name="Path 21" d="M261.572,338.069a15,15,0,0,0-19.5,8.356l-16,40a15,15,0,1,0,27.854,11.142l16-40A15,15,0,0,0,261.572,338.069Z"/>
    <path id="Path_22" data-name="Path 22" d="M181.453,442.023a15,15,0,0,0-19.427,8.521l-16,41a15,15,0,1,0,27.948,10.906l16-41a15,15,0,0,0-8.521-19.427Z"/>
    <path id="Path_23" data-name="Path 23" d="M325.453,442.023a15,15,0,0,0-19.427,8.521l-16,41a15,15,0,1,0,27.948,10.906l16-41a15,15,0,0,0-8.521-19.427Z"/>
    <path id="Path_24" data-name="Path 24" d="M389.572,338.069a15,15,0,0,0-19.5,8.356l-16,40a15,15,0,1,0,27.854,11.142l16-40a15,15,0,0,0-8.356-19.5Z"/>
  </g>
</svg>
