<svg xmlns="http://www.w3.org/2000/svg" width="396.922" height="399.079" viewBox="0 0 396.922 399.079">
  <g id="sun" transform="translate(-1.079 0)">
    <g id="Group_3" data-name="Group 3">
      <g id="Group_2" data-name="Group 2">
        <path id="Path_5" data-name="Path 5" d="M371.84,100.04a7.242,7.242,0,0,0-9.9-2.62l-35.36,20.44a7.241,7.241,0,0,0,7.28,12.52l35.36-20.44A7.242,7.242,0,0,0,371.84,100.04Z"/>
      </g>
    </g>
    <g id="Group_5" data-name="Group 5">
      <g id="Group_4" data-name="Group 4">
        <path id="Path_6" data-name="Path 6" d="M369.22,289.18l-35.36-20.44a7.241,7.241,0,0,0-7.28,12.52l35.36,20.44a7.241,7.241,0,1,0,7.28-12.52Z"/>
      </g>
    </g>
    <g id="Group_7" data-name="Group 7">
      <g id="Group_6" data-name="Group 6">
        <path id="Path_7" data-name="Path 7" d="M200.1,342.62a7.279,7.279,0,0,0-7.8,6.721,7.185,7.185,0,0,0,0,1.078v40.84a7.28,7.28,0,1,0,14.52,1.078,7.185,7.185,0,0,0,0-1.078v-40.84A7.281,7.281,0,0,0,200.1,342.62Z"/>
      </g>
    </g>
    <g id="Group_9" data-name="Group 9">
      <g id="Group_8" data-name="Group 8">
        <path id="Path_8" data-name="Path 8" d="M72.5,117.86,37.14,97.42a7.241,7.241,0,0,0-7.28,12.52l35.36,20.44a7.241,7.241,0,0,0,7.28-12.52Z"/>
      </g>
    </g>
    <g id="Group_11" data-name="Group 11">
      <g id="Group_10" data-name="Group 10">
        <path id="Path_9" data-name="Path 9" d="M200.1.02a7.279,7.279,0,0,0-7.8,6.721,7.185,7.185,0,0,0,0,1.078v40.84a7.26,7.26,0,0,0,14.52-.04V7.82A7.282,7.282,0,0,0,200.1.02Z"/>
      </g>
    </g>
    <g id="Group_13" data-name="Group 13">
      <g id="Group_12" data-name="Group 12">
        <path id="Path_10" data-name="Path 10" d="M130.34,65.22l-20.4-35.36a7.241,7.241,0,0,0-12.52,7.28l20.4,35.36a7.241,7.241,0,0,0,12.52-7.28Z"/>
      </g>
    </g>
    <g id="Group_17" data-name="Group 17">
      <g id="Group_16" data-name="Group 16">
        <path id="Path_12" data-name="Path 12" d="M397.98,198.98a7.28,7.28,0,0,0-6.721-6.721h-40.84a7.28,7.28,0,1,0-1.078,14.52,7.2,7.2,0,0,0,1.079,0h40.84A7.279,7.279,0,0,0,397.98,198.98Z"/>
      </g>
    </g>
    <g id="Group_19" data-name="Group 19">
      <g id="Group_18" data-name="Group 18">
        <path id="Path_13" data-name="Path 13" d="M49.738,192.3a7.185,7.185,0,0,0-1.078,0H7.82a7.28,7.28,0,0,0,0,14.52H48.66a7.28,7.28,0,1,0,1.078-14.52Z"/>
      </g>
    </g>
    <g id="Group_21" data-name="Group 21">
      <g id="Group_20" data-name="Group 20">
        <path id="Path_14" data-name="Path 14" d="M199.569,92.7A106.84,106.84,0,1,0,306.394,199.555,106.841,106.841,0,0,0,199.569,92.7Zm65.25,172.24a92.362,92.362,0,0,1-130.56-130.68v.12a92.32,92.32,0,0,1,130.56,130.56Z"/>
      </g>
    </g>
    <g id="Group_23" data-name="Group 23">
      <g id="Group_22" data-name="Group 22">
        <path id="Path_15" data-name="Path 15" d="M301.678,361.972a.339.339,0,0,0-.019-.032l-20.44-35.36a7.241,7.241,0,1,0-12.52,7.28l20.44,35.36a7.242,7.242,0,0,0,12.539-7.248Z"/>
      </g>
    </g>
    <g id="Group_25" data-name="Group 25">
      <g id="Group_24" data-name="Group 24">
        <path id="Path_16" data-name="Path 16" d="M299.28,27.24a7.242,7.242,0,0,0-9.9,2.62L268.94,65.22a7.239,7.239,0,0,0,2.58,9.908l.02.012h0a7.239,7.239,0,0,0,9.9-2.608l.019-.032L301.9,37.14A7.242,7.242,0,0,0,299.28,27.24Z"/>
      </g>
    </g>
    <g id="Group_27" data-name="Group 27">
      <g id="Group_26" data-name="Group 26">
        <path id="Path_17" data-name="Path 17" d="M127.76,323.96a7.242,7.242,0,0,0-9.9,2.62L97.42,361.94a7.241,7.241,0,0,0,12.52,7.28l20.44-35.36A7.242,7.242,0,0,0,127.76,323.96Z"/>
      </g>
    </g>
    <g id="Group_29" data-name="Group 29">
      <g id="Group_28" data-name="Group 28">
        <path id="Path_18" data-name="Path 18" d="M75.12,271.32a7.242,7.242,0,0,0-9.9-2.62L29.86,289.14a7.241,7.241,0,1,0,7.28,12.52L72.5,281.22A7.242,7.242,0,0,0,75.12,271.32Z"/>
      </g>
    </g>
  </g>
</svg>
